# xmcd CD database file
#
# Track frame offsets:
#	150
#	24391
#	41375
#	59917
#	76908
#	94254
#	110438
#	135472
#	163510
#
# Disc length: 2511 seconds
#
# Revision: 0
# Processed by: cddbd v1.5.2PL0 Copyright (c) Steve Scherf et al.
# Submitted via: CDex 1.70beta2
#
DISCID=6d09cd09
DTITLE=Mark Sanders - Swallow Chase
DYEAR=2004
DGENRE=Jazz
TTITLE0=Untitled
TTITLE1=Untitled
TTITLE2=Untitled
TTITLE3=Untitled
TTITLE4=Untitled
TTITLE5=Untitled
TTITLE6=Untitled
TTITLE7=Untitled
TTITLE8=Untitled
EXTD=YEAR: 2004
EXTT0=
EXTT1=
EXTT2=
EXTT3=
EXTT4=
EXTT5=
EXTT6=
EXTT7=
EXTT8=
PLAYORDER=
